# xmcd
# 
# Track frame offsets:
#     150
#     17159
#     29250
#     44178
#     62813
#     81636
#     96141
#     112488
#     130085
#     148991
#     160854
#     174186
#     189804
#     212550
# 
# Disc length: 3091
# 
# Revision: 3
# Processed by: cddbd v1.5.2PL0 Copyright (c) Steve Scherf et al.
# Submitted via: fre:ac v1.0.17
# 
DISCID=cc0c110e
DTITLE=Patricia Conroy - Greatest Hits
DYEAR=2000
DGENRE=Country
TTITLE0=Bad Day For Trains
TTITLE1=My Baby Loves Me (Just The Way That I Am)
TTITLE2=Blank Pages
TTITLE3=Somebody's Leaving
TTITLE4=What Else Can I Do
TTITLE5=You Can't Resist It
TTITLE6=Keep Me Rockin'
TTITLE7=I Don't Wanna Be The One
TTITLE8=Mary On The Dashboard
TTITLE9=Direction of Love
TTITLE10=Ain't Nobody Like You
TTITLE11=Don't You Forget (Who You're Talkin' To)
TTITLE12=Wild As The Wind
TTITLE13=Nobody's Fault
EXTD=YEAR: 2000
EXTT0=
EXTT1=
EXTT2=
EXTT3=
EXTT4=
EXTT5=
EXTT6=
EXTT7=
EXTT8=
EXTT9=
EXTT10=
EXTT11=
EXTT12=
EXTT13=
PLAYORDER=
